BBC Natural World 2011/2012 E03 Heligan: Secrets of the Lost Gardens 720p x264 aac mp4 subtitles [aularon]

- - -
Synopsis
- - -
Looking at the secret lives of the wildlife in one of Britain's favourite gardens. Shot by Charlie Hamilton-James, this film follows various animals, from the family of foxes that play after hours in the pleasure gardens, to the toads in the Italian garden and the badgers that clear up the tea rooms at night. Set against the background of the gardening year, these stories reveal life behind the scenes at Heligan.


- - -
URL
- - -
 
http://www.bbc.co.uk/programmes/b013nhmg


- - -
Technical Details
- - -
General
Complete name                    : BBC.Natural.World.2011.2012.E03.Heligan.Secrets.of.the.Lost.Gardens/Natural_World_-_2011-2012_Heligan_3._Secrets_of_the_Lost_Gardens_b013nhmg_default.mp4
Format                           : MPEG-4
Format profile                   : Base Media
Codec ID                         : isom
File size                        : 1.04 GiB
Duration                         : 58mn 47s
Overall bit rate                 : 2 535 Kbps
Movie name                       : Natural World: 2011-2012: Heligan: Secrets of the Lost Gardens
Album                            : Natural World
Track name/Position              : 3
Track name/Total                 : 0
Performer                        : Natural World
Genre                            : Factual,Science & Nature,Lifestyle & Leisure,Pets & Animals
Recorded date                    : 2011-08-17T20:00:00+01:00
Writing application              : Lavf53.6.0
Cover                            : Yes
Comment                          : Recorded using get_iplayer, by Aularon.
rtng                             : 2
stik                             : 1
desc                             : Looking at the secret lives of the wildlife in one of Britain's favourite gardens, from the family of foxes that play after hours to the toads in the Italian garden.
tvnn                             : BBC HD
tvsh                             : Natural World
tven                             : b013nhmg
catg                             : Factual,Science & Nature,Lifestyle & Leisure,Pets & Animals
tves                             : 3

Video
ID                               : 1
Format                           : AVC
Format/Info                      : Advanced Video Codec
Format profile                   : High@L4.1
Format settings, CABAC           : Yes
Format settings, ReFrames        : 6 frames
Codec ID                         : avc1
Codec ID/Info                    : Advanced Video Coding
Duration                         : 58mn 47s
Bit rate mode                    : Variable
Bit rate                         : 2 434 Kbps
Maximum bit rate                 : 3 500 Kbps
Width                            : 1 280 pixels
Height                           : 720 pixels
Display aspect ratio             : 16:9
Frame rate mode                  : Constant
Frame rate                       : 25.000 fps
Standard                         : PAL
Color space                      : YUV
Chroma subsampling               : 4:2:0
Bit depth                        : 8 bits
Scan type                        : Progressive
Bits/(Pixel*Frame)               : 0.106
Stream size                      : 1 024 MiB (96%)

Audio
ID                               : 2
Format                           : AAC
Format/Info                      : Advanced Audio Codec
Format profile                   : HE-AAC / LC
Codec ID                         : 40
Duration                         : 58mn 47s
Bit rate mode                    : Constant
Bit rate                         : 96.0 Kbps
Channel(s)                       : 2 channels
Channel positions                : Front: L R
Sampling rate                    : 48.0 KHz / 24.0 KHz
Compression mode                 : Lossy
Stream size                      : 39.8 MiB (4%)
